<svg id="Layer_1" data-name="Layer 1" xmlns="http://www.w3.org/2000/svg" viewBox="0 0 1300.91 799.78"><defs><style>.cls-1{fill:#007acc;}.cls-2{fill:#349b34;}.cls-3{fill:none;stroke:#007acc;stroke-miterlimit:10;opacity:0.16;}</style></defs><title>_main</title><polygon class="cls-1" points="383.41 630.5 816.91 0 1300.91 0 1300.91 630 383.41 630.5"/><path class="cls-2" d="M120.47,177.54c1-2.76,1.92-4.61,6-4.61,3.06,0,4.5,1,4.5,2.93a7.82,7.82,0,0,1-.72,2.82l-12.34,29c-1.32,3.18-2.22,4.73-5.93,4.73-4.08,0-4.92-1.79-6.11-4.67L94.05,178.8a7.12,7.12,0,0,1-.78-2.82c0-2.1,1.62-3,4.62-3,3.77,0,4.85,1.49,6,4.67l8.27,22.28Z" transform="translate(101.41 0.5)"/><path class="cls-2" d="M161,202.28c1.68-2,1.74-4.79,1.74-6.95V178.08c0-1.68,0-2.82.72-3.78s1.92-1.37,3.95-1.37,3.24.42,4,1.37.72,2.1.72,3.78v16.77c0,4.07,0,8.75-3.42,12.76-2.58,3-6.77,5.15-14,5.15s-11.32-2.21-13.84-5.15c-3.47-4.07-3.47-8.57-3.47-12.82V178.08c0-1.68,0-2.82.72-3.78s2-1.37,4-1.37,3.3.42,4,1.37.71,2.1.71,3.78v17.25c0,2.16,0,4.91,1.68,6.95,1.26,1.5,3.3,2.4,6.29,2.4S159.77,203.78,161,202.28Z" transform="translate(101.41 0.5)"/><path class="cls-2" d="M191.23,187.66h6.53c1.62,0,2.75,0,3.65.6a4.77,4.77,0,0,1,0,6.83c-.9.6-2,.6-3.65.6h-6.53V204h10c1.62,0,2.76,0,3.66.6a4.77,4.77,0,0,1,0,6.83c-.9.59-2,.59-3.66.59H186.62c-3.24,0-4.44-1.25-4.44-4.43V177.78c0-3.24,1.2-4.43,4.44-4.43H200c1.61,0,2.75,0,3.65.59a4.77,4.77,0,0,1,0,6.83c-.9.6-2,.6-3.65.6h-8.81Z" transform="translate(101.41 0.5)"/><path class="cls-2" d="M225.08,200.66c0,7.31-.06,10.91-5.63,16.42-2.28,2.27-3.54,2.87-4.86,2.87a5,5,0,0,1-4.85-4.61c0-1.92,1.74-2.76,3.06-4.13,2.81-2.82,2.81-6.23,2.81-10.67V178.08c0-1.68,0-2.82.72-3.78s2-1.37,4-1.37,3.29.42,4,1.37.72,2.1.72,3.78Z" transform="translate(101.41 0.5)"/><path class="cls-2" d="M252.1,190.72c3.17,2.09,5.93,5,5.93,10.06,0,7.61-6.35,11.86-14,11.86a18.66,18.66,0,0,1-8.15-1.79c-1.91-1-3.47-2.22-3.47-4.32s1.44-4.55,3.77-4.55,4.26,2.76,7.91,2.76c2.64,0,4.43-1.38,4.43-3.54,0-2.33-2.15-3.65-4.79-5C239.22,193.83,233,191,233,184s6-11.38,13.42-11.38c5.27,0,10.9,2.27,10.9,5.81,0,1.91-1.68,4.37-3.95,4.37s-4.08-2.22-7.13-2.22c-2.34,0-3.78,1.26-3.78,2.88C242.45,186.52,247.84,187.9,252.1,190.72Z" transform="translate(101.41 0.5)"/><path class="cls-1" d="M114.06,279.09c0,1.61,0,2.75-.72,3.71s-2,1.44-4,1.44-3.29-.48-4-1.44-.72-2.1-.72-3.71v-25.4H98.07c-1.62,0-2.7,0-3.66-.66A4,4,0,0,1,93,249.49c0-1.85.53-2.93,1.43-3.59s2-.66,3.66-.66h22.52c1.62,0,2.7,0,3.66.66s1.43,1.74,1.43,3.59a4,4,0,0,1-1.43,3.54c-1,.66-2,.66-3.66.66h-6.53Z" transform="translate(101.41 0.5)"/><path class="cls-1" d="M153.12,249c1.44-2.45,2.52-4.13,6.65-4.13,3.3,0,4.38,1.08,4.38,2.58,0,1.07-.54,2-1.44,3.35l-12,18.63v9.71c0,1.67,0,2.81-.72,3.77s-2,1.38-4,1.38-3.3-.42-4-1.38-.72-2.1-.72-3.77v-9.65l-11.5-18.39c-1-1.5-1.5-2.46-1.5-3.47,0-1.74,1.44-2.76,4.68-2.76,3.89,0,5.27,1.44,6.83,4.19l6.59,11.63Z" transform="translate(101.41 0.5)"/><path class="cls-1" d="M181.88,270.88c-1.14,0-2.09-.06-2.09-.06v8.27c0,1.61,0,2.75-.72,3.71s-1.92,1.44-3.9,1.44-3.23-.48-3.95-1.44-.72-2.1-.72-3.71V250.81c0-2,0-4,3.06-5.15a23.69,23.69,0,0,1,7.54-1c4,0,8.39.54,11.93,2.76a11.2,11.2,0,0,1,5.39,10.12C198.42,266.63,191.05,270.88,181.88,270.88Zm-2.09-7.43a12,12,0,0,0,1.79.12c3.78,0,7.31-1.38,7.31-5.51,0-3.77-2.87-5.45-6.95-5.45-1.08,0-2.15.12-2.15.12Z" transform="translate(101.41 0.5)"/><path class="cls-1" d="M214.29,259.56h6.53c1.62,0,2.76,0,3.66.6a4.77,4.77,0,0,1,0,6.83c-.9.59-2,.59-3.66.59h-6.53v8.33h10c1.62,0,2.75,0,3.65.6a4.77,4.77,0,0,1,0,6.83c-.9.6-2,.6-3.65.6H209.68c-3.23,0-4.43-1.26-4.43-4.43V249.67c0-3.23,1.2-4.43,4.43-4.43H223.1c1.62,0,2.76,0,3.66.6a4.79,4.79,0,0,1,0,6.83c-.9.6-2,.6-3.66.6h-8.81Z" transform="translate(101.41 0.5)"/><path class="cls-1" d="M254.13,262.61c3.18,2.1,5.94,5,5.94,10.07,0,7.6-6.35,11.86-14,11.86a18.53,18.53,0,0,1-8.15-1.8c-1.92-1-3.47-2.22-3.47-4.31s1.43-4.55,3.77-4.55,4.25,2.75,7.91,2.75c2.63,0,4.43-1.38,4.43-3.53,0-2.34-2.16-3.66-4.79-5-4.56-2.33-10.79-5.15-10.79-12.22s6-11.38,13.42-11.38c5.28,0,10.91,2.28,10.91,5.81,0,1.92-1.68,4.38-4,4.38s-4.07-2.22-7.13-2.22c-2.33,0-3.77,1.26-3.77,2.87C244.49,258.42,249.88,259.8,254.13,262.61Z" transform="translate(101.41 0.5)"/><path class="cls-1" d="M284.93,276a11.83,11.83,0,0,0,4.55-.9c1.8-.72,2.94-1.55,4.2-1.55,2.45,0,3.77,2.93,3.77,4.73,0,1.5-1,2.75-2.7,3.83-2.75,1.68-6.83,2.46-10.36,2.46-11,0-19.59-7.37-19.59-20.13,0-13.42,9.47-20.07,19.77-20.07a20.92,20.92,0,0,1,10.18,2.4c1.86,1.14,2.7,2.39,2.7,3.89,0,1.86-1.26,4.79-3.77,4.79-1.32,0-2.58-.77-4.5-1.55a12.29,12.29,0,0,0-4.73-1c-5.27,0-10.06,3.41-10.06,11.32C274.39,272.44,279.42,276,284.93,276Z" transform="translate(101.41 0.5)"/><path class="cls-1" d="M313.75,279.09c0,1.61-.06,2.75-.72,3.71s-2,1.44-3.84,1.44c-2.09,0-3.23-.6-3.83-1.44s-.66-2.1-.66-3.71V250.81c0-2,0-4.19,3.54-5.27a27,27,0,0,1,7.54-.84,23.73,23.73,0,0,1,10.07,1.8,10.68,10.68,0,0,1,6.23,10.24,11.56,11.56,0,0,1-6.41,10.78l8.86,11.93c1.68,2.21.72,4.79-3.83,4.79-3.53,0-4.79-1.5-6.47-4l-4.79-7.18c-1-1.5-2.1-3.48-2.1-3.48h-3.59Zm0-16.84s.78.06,1.67.06c4.8,0,7.13-1.67,7.13-5,0-3.59-2.69-4.67-6.17-4.67a19.65,19.65,0,0,0-2.63.18Z" transform="translate(101.41 0.5)"/><path class="cls-1" d="M351.73,279.09c0,1.67,0,2.81-.72,3.77s-2,1.38-4,1.38-3.3-.42-4-1.38-.71-2.1-.71-3.77V250c0-1.68,0-2.81.71-3.77s2-1.38,4-1.38,3.29.42,4,1.38.72,2.09.72,3.77Z" transform="translate(101.41 0.5)"/><path class="cls-1" d="M373.18,270.88c-1.14,0-2.1-.06-2.1-.06v8.27c0,1.61,0,2.75-.72,3.71s-1.91,1.44-3.89,1.44-3.24-.48-4-1.44-.72-2.1-.72-3.71V250.81c0-2,0-4,3.05-5.15a23.8,23.8,0,0,1,7.55-1c4,0,8.39.54,11.92,2.76a11.18,11.18,0,0,1,5.39,10.12C389.71,266.63,382.34,270.88,373.18,270.88Zm-2.1-7.43a12.09,12.09,0,0,0,1.8.12c3.77,0,7.31-1.38,7.31-5.51,0-3.77-2.88-5.45-6.95-5.45-1.08,0-2.16.12-2.16.12Z" transform="translate(101.41 0.5)"/><path class="cls-1" d="M413,279.09c0,1.61,0,2.75-.72,3.71s-2,1.44-4,1.44-3.3-.48-4-1.44-.72-2.1-.72-3.71v-25.4H397c-1.61,0-2.69,0-3.65-.66a4,4,0,0,1-1.44-3.54c0-1.85.54-2.93,1.44-3.59s2-.66,3.65-.66h22.53c1.62,0,2.7,0,3.65.66s1.44,1.74,1.44,3.59a4,4,0,0,1-1.44,3.54c-.95.66-2,.66-3.65.66H413Z" transform="translate(101.41 0.5)"/><line class="cls-3" x1="330.41" y1="639.5" x2="568.41" y2="292.5"/><line class="cls-3" x1="252.41" y1="678.5" x2="490.41" y2="331.5"/><line class="cls-3" x1="175.41" y1="713.5" x2="413.41" y2="366.5"/><line class="cls-3" x1="91.41" y1="752.5" x2="329.41" y2="405.5"/><line class="cls-3" x1="0.41" y1="799.5" x2="238.41" y2="452.5"/></svg>