<svg id="Layer_1" data-name="Layer 1" xmlns="http://www.w3.org/2000/svg" viewBox="0 0 800 400"><defs><style>.cls-1{fill:#ffb024;}.cls-2{fill:#0c93ef;}.cls-3{opacity:0.8;}.cls-4{opacity:0.7;}.cls-5,.cls-8{fill:none;stroke-miterlimit:10;}.cls-5{stroke:#e213dd;}.cls-6{fill:#e213dd;}.cls-7{fill:#fff;}.cls-8{stroke:#e210e8;}.cls-9{fill:#e210e8;}</style></defs><title>flexbox</title><path class="cls-1" d="M644,351.65H129c-4.62,0-41,38.53-41,30.16V35.14C88,26.78,91.74,20,96.36,20H680.64c4.62,0,8.36,6.78,8.36,15.14V381.81C689,390.18,648.62,351.65,644,351.65Z"/><rect class="cls-2" x="107" y="42" width="557.2" height="86"/><g class="cls-3"><rect class="cls-2" x="111.8" y="145" width="557.2" height="86"/></g><g class="cls-4"><rect class="cls-2" x="111.8" y="248" width="557.2" height="86"/></g><line class="cls-5" x1="549" y1="33.46" x2="549" y2="239.54"/><polygon class="cls-6" points="545.67 38.45 549 34.51 552.33 38.45 549 27 545.67 38.45"/><polygon class="cls-7" points="546.64 36.83 549 28.26 549 33.91 546.64 36.83"/><polygon class="cls-6" points="552.33 234.54 549 238.49 545.67 234.54 549 246 552.33 234.54"/><polygon class="cls-7" points="551.36 236.17 549 244.74 549 239.09 551.36 236.17"/><line class="cls-8" x1="394.96" y1="84.5" x2="705.54" y2="84.5"/><polygon class="cls-9" points="399.95 87.83 396.01 84.5 399.95 81.17 388.5 84.5 399.95 87.83"/><polygon class="cls-7" points="398.33 86.86 389.76 84.5 395.41 84.5 398.33 86.86"/><polygon class="cls-9" points="700.54 81.17 704.49 84.5 700.54 87.83 712 84.5 700.54 81.17"/><polygon class="cls-7" points="702.17 82.14 710.74 84.5 705.09 84.5 702.17 82.14"/></svg>