<svg id="Layer_1" data-name="Layer 1" xmlns="http://www.w3.org/2000/svg" viewBox="0 0 800 352"><defs><style>.cls-1{fill:#ffb024;}.cls-2{fill:#0c93ef;}.cls-3{opacity:0.8;}.cls-4{opacity:0.7;}.cls-5{opacity:0.6;}.cls-6,.cls-9{fill:none;stroke-miterlimit:10;}.cls-6{stroke:#e213dd;}.cls-7{fill:#e213dd;}.cls-8{fill:#fff;}.cls-9{stroke:#e210e8;}.cls-10{fill:#e210e8;}</style></defs><title>flexbox-es</title><path class="cls-1" d="M645,243H130c-4.62,0-41,21.26-41,16.64V68.36A8.36,8.36,0,0,1,97.36,60H681.64A8.36,8.36,0,0,1,690,68.36V259.64C690,264.26,649.62,243,645,243Z"/><rect class="cls-2" x="108" y="82" width="116" height="86"/><g class="cls-3"><rect class="cls-2" x="236" y="82" width="116" height="86"/></g><g class="cls-4"><rect class="cls-2" x="364" y="82" width="116" height="86"/></g><g class="cls-5"><rect class="cls-2" x="492" y="82" width="116" height="86"/></g><path d="M733.25,114.58h-3.14v2.92h3.5v.88h-4.55v-8.09h4.37v.88h-3.32v2.55h3.14Z"/><path d="M733.52,120.05a1.65,1.65,0,0,0,1.15-.44c.29-.34.39-.79.39-2.18v-4.86h1.06v5.27a3.16,3.16,0,0,1-.7,2.38,2.65,2.65,0,0,1-1.8.66Zm2.72-9.11a.62.62,0,0,1-.66.65.63.63,0,0,1-.65-.65.65.65,0,0,1,.67-.66A.62.62,0,0,1,736.24,110.94Z"/><path d="M738.44,115.66a1.86,1.86,0,0,0,2,2,3.75,3.75,0,0,0,1.6-.3l.18.76a4.8,4.8,0,0,1-1.93.36,2.7,2.7,0,0,1-2.85-2.93c0-1.75,1-3.13,2.72-3.13a2.46,2.46,0,0,1,2.4,2.73,2.63,2.63,0,0,1,0,.49Zm3.09-.75a1.51,1.51,0,0,0-1.46-1.72,1.75,1.75,0,0,0-1.62,1.72Z"/><path d="M729.06,124.79a11.55,11.55,0,0,1,2-.16,3.31,3.31,0,0,1,2.26.67A2.16,2.16,0,0,1,734,127a2.36,2.36,0,0,1-.62,1.73,3.34,3.34,0,0,1-2.47.89,3.56,3.56,0,0,1-.84-.07v3.23h-1.05Zm1.05,3.9a3.44,3.44,0,0,0,.86.08c1.26,0,2-.61,2-1.73s-.76-1.58-1.91-1.58a4.93,4.93,0,0,0-1,.08Z"/><path d="M735.22,128.78c0-.68,0-1.27-.05-1.81h.93l0,1.14h0a1.74,1.74,0,0,1,1.61-1.27,1.39,1.39,0,0,1,.3,0v1a1.88,1.88,0,0,0-.36,0,1.49,1.49,0,0,0-1.42,1.36,3.37,3.37,0,0,0,0,.49v3.09h-1Z"/><path d="M740.37,125.34a.66.66,0,0,1-1.31,0,.65.65,0,0,1,.66-.66A.63.63,0,0,1,740.37,125.34Zm-1.18,7.43V127h1.06v5.8Z"/><path d="M742,128.54c0-.6,0-1.09,0-1.57h.94l.06,1h0a2.14,2.14,0,0,1,1.92-1.09c.8,0,2.05.48,2.05,2.47v3.46h-1.05v-3.34c0-.94-.35-1.72-1.35-1.72a1.51,1.51,0,0,0-1.41,1.08,1.44,1.44,0,0,0-.08.49v3.49h-1Z"/><path d="M752.8,132.56a4,4,0,0,1-1.67.34,2.76,2.76,0,0,1-2.89-3,3,3,0,0,1,3.12-3.08,3.6,3.6,0,0,1,1.46.3l-.24.82a2.37,2.37,0,0,0-1.22-.28,2.19,2.19,0,0,0,0,4.37,3,3,0,0,0,1.3-.29Z"/><path d="M755.21,125.34a.62.62,0,0,1-.67.65.63.63,0,0,1-.64-.65.65.65,0,0,1,.66-.66A.63.63,0,0,1,755.21,125.34ZM754,132.77V127h1.05v5.8Z"/><path d="M756.84,128.87c0-.75,0-1.35-.05-1.9h1l0,1h0a2.3,2.3,0,0,1,2.07-1.13c1.4,0,2.46,1.19,2.46,2.95,0,2.09-1.27,3.12-2.64,3.12a2.05,2.05,0,0,1-1.79-.91h0v3.15h-1Zm1,1.54a2.74,2.74,0,0,0,0,.43,1.63,1.63,0,0,0,1.59,1.24c1.11,0,1.76-.91,1.76-2.24,0-1.17-.61-2.16-1.73-2.16A1.67,1.67,0,0,0,758,129a1.62,1.62,0,0,0-.07.44Z"/><path d="M766.89,132.77l-.09-.73h0a2.17,2.17,0,0,1-1.78.87,1.65,1.65,0,0,1-1.77-1.67c0-1.4,1.24-2.17,3.49-2.16V129a1.2,1.2,0,0,0-1.32-1.34,2.9,2.9,0,0,0-1.51.43l-.24-.7a3.6,3.6,0,0,1,1.9-.51c1.78,0,2.21,1.21,2.21,2.37v2.17a8.32,8.32,0,0,0,.09,1.39Zm-.16-3c-1.15,0-2.46.18-2.46,1.31a.94.94,0,0,0,1,1,1.45,1.45,0,0,0,1.4-1,1,1,0,0,0,.06-.34Z"/><path d="M769.46,124.26h1v8.51h-1Z"/><path d="M534.77,298h-3.14v2.92h3.5v.87h-4.55V293.7H535v.88h-3.32v2.55h3.14Z"/><path d="M535,303.46a1.72,1.72,0,0,0,1.15-.44c.28-.34.39-.79.39-2.18V296h1.06v5.26a3.17,3.17,0,0,1-.7,2.39,2.66,2.66,0,0,1-1.8.66Zm2.72-9.11a.62.62,0,0,1-.66.65.63.63,0,0,1-.65-.65.65.65,0,0,1,.67-.66A.62.62,0,0,1,537.76,294.35Z"/><path d="M540,299.07a1.87,1.87,0,0,0,2,2,3.76,3.76,0,0,0,1.61-.3l.18.75a4.67,4.67,0,0,1-1.93.36A2.69,2.69,0,0,1,539,299c0-1.75,1-3.13,2.72-3.13a2.46,2.46,0,0,1,2.4,2.73,4.15,4.15,0,0,1,0,.49Zm3.1-.75a1.51,1.51,0,0,0-1.47-1.72,1.75,1.75,0,0,0-1.61,1.72Z"/><path d="M530.44,314.91a3.68,3.68,0,0,0,1.87.53c1.07,0,1.69-.56,1.69-1.38s-.43-1.19-1.52-1.61c-1.32-.46-2.14-1.15-2.14-2.29A2.33,2.33,0,0,1,533,308a3.72,3.72,0,0,1,1.78.39l-.28.86a3.19,3.19,0,0,0-1.54-.39c-1.1,0-1.52.66-1.52,1.21,0,.76.49,1.13,1.6,1.56,1.37.53,2.07,1.19,2.07,2.38s-.93,2.32-2.83,2.32a4.21,4.21,0,0,1-2.07-.51Z"/><path d="M537.12,313.47a1.87,1.87,0,0,0,2,2,3.8,3.8,0,0,0,1.61-.3l.18.75a4.67,4.67,0,0,1-1.93.36,2.69,2.69,0,0,1-2.85-2.92c0-1.75,1-3.13,2.72-3.13a2.46,2.46,0,0,1,2.4,2.73,4,4,0,0,1,0,.49Zm3.1-.75a1.51,1.51,0,0,0-1.47-1.72,1.77,1.77,0,0,0-1.62,1.72Z"/><path d="M546.68,316a3.9,3.9,0,0,1-1.66.33,2.75,2.75,0,0,1-2.89-3,2.94,2.94,0,0,1,3.12-3.08,3.6,3.6,0,0,1,1.46.3l-.24.81a2.5,2.5,0,0,0-1.22-.27,2.18,2.18,0,0,0,0,4.36,3,3,0,0,0,1.29-.28Z"/><path d="M552.78,314.6c0,.6,0,1.13.05,1.58h-.94l-.06-.94h0a2.21,2.21,0,0,1-1.92,1.08c-.91,0-2-.51-2-2.55v-3.39h1.05v3.21c0,1.11.34,1.85,1.3,1.85a1.53,1.53,0,0,0,1.39-1,1.57,1.57,0,0,0,.09-.54v-3.56h1.06Z"/><path d="M554.53,312c0-.6,0-1.09,0-1.57h.93l.06,1h0a2.14,2.14,0,0,1,1.92-1.09c.81,0,2.05.48,2.05,2.47v3.46h-1.05v-3.34c0-.94-.35-1.72-1.34-1.72a1.5,1.5,0,0,0-1.42,1.08,1.45,1.45,0,0,0-.07.49v3.49h-1.06Z"/><path d="M566.21,307.67v7c0,.52,0,1.11,0,1.5h-.94l0-1h0a2.18,2.18,0,0,1-2,1.14c-1.41,0-2.49-1.19-2.49-2.95,0-1.94,1.19-3.12,2.61-3.12a2,2,0,0,1,1.75.88h0v-3.46Zm-1.06,5.07a1.65,1.65,0,0,0,0-.44,1.55,1.55,0,0,0-1.52-1.23c-1.09,0-1.74,1-1.74,2.25s.58,2.14,1.72,2.14a1.58,1.58,0,0,0,1.54-1.25,1.71,1.71,0,0,0,0-.46Z"/><path d="M571.18,316.18l-.09-.73h0a2.17,2.17,0,0,1-1.78.87,1.65,1.65,0,0,1-1.77-1.67c0-1.4,1.24-2.17,3.49-2.16v-.12a1.19,1.19,0,0,0-1.32-1.34,2.81,2.81,0,0,0-1.51.43l-.24-.7a3.6,3.6,0,0,1,1.9-.51c1.78,0,2.21,1.21,2.21,2.37v2.17a7.31,7.31,0,0,0,.1,1.39Zm-.16-3c-1.15,0-2.46.18-2.46,1.31a.94.94,0,0,0,1,1,1.44,1.44,0,0,0,1.4-1,.92.92,0,0,0,.06-.33Z"/><path d="M573.75,312.19c0-.68,0-1.27,0-1.81h.92l0,1.14h.05a1.73,1.73,0,0,1,1.6-1.27,1.32,1.32,0,0,1,.3,0v1a1.28,1.28,0,0,0-.36,0,1.48,1.48,0,0,0-1.41,1.36,2.38,2.38,0,0,0-.05.49v3.09h-1Z"/><path d="M578.89,308.75a.62.62,0,0,1-.67.65.63.63,0,0,1-.63-.65.64.64,0,0,1,.66-.66A.62.62,0,0,1,578.89,308.75Zm-1.17,7.43v-5.8h1v5.8Z"/><path d="M585.78,313.23a2.84,2.84,0,0,1-2.89,3.09,2.76,2.76,0,0,1-2.78-3,2.83,2.83,0,0,1,2.87-3.08A2.75,2.75,0,0,1,585.78,313.23Zm-4.61.06c0,1.27.74,2.23,1.77,2.23s1.76-.94,1.76-2.25c0-1-.49-2.23-1.74-2.23S581.17,312.19,581.17,313.29Z"/><path d="M95.19,50.62a5.2,5.2,0,0,1-2.13.38,3.78,3.78,0,0,1-4-4.09,4,4,0,0,1,4.23-4.25A4.35,4.35,0,0,1,95.2,43l-.25.86a3.66,3.66,0,0,0-1.63-.34,3,3,0,0,0-3.15,3.33,2.94,2.94,0,0,0,3.1,3.25A4.27,4.27,0,0,0,95,49.79Z"/><path d="M101.59,47.93A2.83,2.83,0,0,1,98.7,51a2.76,2.76,0,0,1-2.78-3,2.83,2.83,0,0,1,2.87-3.08A2.75,2.75,0,0,1,101.59,47.93ZM97,48c0,1.27.73,2.23,1.77,2.23s1.76-.95,1.76-2.26c0-1-.49-2.23-1.74-2.23S97,46.89,97,48Z"/><path d="M102.92,46.65c0-.6,0-1.1,0-1.58h.93l.06,1h0a2.11,2.11,0,0,1,1.91-1.09c.81,0,2,.48,2,2.47v3.47h-1V47.53c0-.93-.35-1.71-1.34-1.71a1.5,1.5,0,0,0-1.42,1.08,1.45,1.45,0,0,0-.07.49v3.49h-1.06Z"/><path d="M110.81,43.41v1.66h1.51v.81h-1.51V49c0,.72.2,1.13.79,1.13a2.13,2.13,0,0,0,.61-.08l.05.8a2.73,2.73,0,0,1-.94.14,1.49,1.49,0,0,1-1.14-.44,2.18,2.18,0,0,1-.41-1.52V45.88h-.89v-.81h.89V43.68Z"/><path d="M114,48.17a1.86,1.86,0,0,0,2,2,3.76,3.76,0,0,0,1.61-.3l.18.76a4.67,4.67,0,0,1-1.93.36A2.69,2.69,0,0,1,113,48.07c0-1.75,1-3.13,2.72-3.13a2.47,2.47,0,0,1,2.4,2.74,4.35,4.35,0,0,1,0,.49Zm3.1-.76a1.5,1.5,0,0,0-1.47-1.71A1.76,1.76,0,0,0,114,47.41Z"/><path d="M119.45,46.65c0-.6,0-1.1,0-1.58h.93l.06,1h0a2.14,2.14,0,0,1,1.92-1.09c.8,0,2,.48,2,2.47v3.47h-1.06V47.53c0-.93-.34-1.71-1.34-1.71a1.5,1.5,0,0,0-1.42,1.08,1.75,1.75,0,0,0-.07.49v3.49h-1Z"/><path d="M126.69,48.17a1.86,1.86,0,0,0,2,2,3.75,3.75,0,0,0,1.6-.3l.18.76a4.63,4.63,0,0,1-1.93.36,2.69,2.69,0,0,1-2.85-2.93c0-1.75,1-3.13,2.72-3.13a2.47,2.47,0,0,1,2.4,2.74,4.35,4.35,0,0,1,0,.49Zm3.1-.76a1.5,1.5,0,0,0-1.46-1.71,1.74,1.74,0,0,0-1.62,1.71Z"/><path d="M137.13,42.36v7c0,.52,0,1.1.05,1.5h-1l0-1h0a2.14,2.14,0,0,1-2,1.14c-1.4,0-2.48-1.19-2.48-2.95,0-1.93,1.19-3.12,2.6-3.12a1.93,1.93,0,0,1,1.75.89h0V42.36Zm-1,5.08A2.38,2.38,0,0,0,136,47a1.55,1.55,0,0,0-1.52-1.22c-1.1,0-1.74,1-1.74,2.24s.57,2.15,1.71,2.15A1.59,1.59,0,0,0,136,48.9a2.16,2.16,0,0,0,.05-.46Z"/><path d="M144.14,47.93A2.83,2.83,0,0,1,141.25,51a2.76,2.76,0,0,1-2.78-3,2.83,2.83,0,0,1,2.88-3.08A2.75,2.75,0,0,1,144.14,47.93Zm-4.61.06c0,1.27.74,2.23,1.77,2.23s1.76-.95,1.76-2.26c0-1-.49-2.23-1.74-2.23S139.53,46.89,139.53,48Z"/><path d="M145.47,46.89c0-.69,0-1.28,0-1.82h.92l0,1.14h0A1.75,1.75,0,0,1,148,44.94a.91.91,0,0,1,.3,0v1a1.94,1.94,0,0,0-.36,0,1.47,1.47,0,0,0-1.41,1.35,2.49,2.49,0,0,0,0,.5v3.09h-1.05Z"/><path d="M152.18,50.88l.31-2.35h-1v-.71h1.09l.23-1.74h-1v-.71h1.14l.31-2.29h.7l-.3,2.29h1.24l.32-2.29h.7l-.3,2.29h1v.71h-1.1l-.21,1.74h1v.71h-1.14l-.31,2.35h-.72l.31-2.35h-1.25l-.31,2.35Zm2.39-3.06.23-1.74h-1.25l-.23,1.74Z"/><path d="M158.33,45.07l.76,3c.17.65.33,1.25.44,1.85h0c.13-.59.33-1.21.52-1.83l.94-3h.89l.9,2.91c.22.69.39,1.3.52,1.89h0a18.69,18.69,0,0,1,.45-1.88l.83-2.92h1l-1.87,5.81h-1L162,48.11c-.2-.65-.37-1.22-.52-1.91h0a14.91,14.91,0,0,1-.53,1.92L160,50.88h-1l-1.75-5.81Z"/><path d="M166.74,46.89c0-.69,0-1.28-.05-1.82h.92l0,1.14h0a1.74,1.74,0,0,1,1.6-1.27.91.91,0,0,1,.3,0v1a1.75,1.75,0,0,0-.35,0,1.47,1.47,0,0,0-1.42,1.35,3.52,3.52,0,0,0-.05.5v3.09h-1Z"/><path d="M173.82,50.88l-.09-.73h0a2.19,2.19,0,0,1-1.78.86,1.65,1.65,0,0,1-1.77-1.67c0-1.4,1.24-2.17,3.49-2.15v-.12a1.21,1.21,0,0,0-1.32-1.35,2.9,2.9,0,0,0-1.51.43l-.24-.69a3.6,3.6,0,0,1,1.9-.52c1.78,0,2.21,1.21,2.21,2.38v2.17a7.44,7.44,0,0,0,.1,1.39Zm-.16-3c-1.15,0-2.46.18-2.46,1.3a.94.94,0,0,0,1,1,1.45,1.45,0,0,0,1.4-1,1,1,0,0,0,.06-.34Z"/><path d="M176.39,47c0-.74,0-1.34,0-1.9h.95l0,1h0a2.27,2.27,0,0,1,2.06-1.13c1.4,0,2.46,1.19,2.46,3,0,2.09-1.27,3.12-2.64,3.12a2,2,0,0,1-1.79-.91h0v3.15h-1Zm1,1.55a2,2,0,0,0,0,.43,1.63,1.63,0,0,0,1.58,1.23c1.12,0,1.76-.91,1.76-2.24,0-1.16-.61-2.16-1.72-2.16a1.7,1.7,0,0,0-1.6,1.31,2,2,0,0,0-.07.43Z"/><path d="M183.21,47c0-.74,0-1.34,0-1.9h.94l0,1h0a2.27,2.27,0,0,1,2.06-1.13c1.4,0,2.46,1.19,2.46,3,0,2.09-1.27,3.12-2.64,3.12a2,2,0,0,1-1.79-.91h0v3.15h-1Zm1,1.55a2,2,0,0,0,.05.43,1.62,1.62,0,0,0,1.58,1.23c1.11,0,1.76-.91,1.76-2.24,0-1.16-.61-2.16-1.73-2.16a1.69,1.69,0,0,0-1.59,1.31,1.55,1.55,0,0,0-.07.43Z"/><path d="M190.63,48.17a1.85,1.85,0,0,0,2,2,3.8,3.8,0,0,0,1.61-.3l.18.76a4.67,4.67,0,0,1-1.93.36,2.7,2.7,0,0,1-2.86-2.93c0-1.75,1-3.13,2.72-3.13a2.46,2.46,0,0,1,2.4,2.74,4.88,4.88,0,0,1,0,.49Zm3.09-.76a1.49,1.49,0,0,0-1.46-1.71,1.75,1.75,0,0,0-1.62,1.71Z"/><path d="M196.05,46.89c0-.69,0-1.28,0-1.82h.92l0,1.14h0a1.75,1.75,0,0,1,1.61-1.27,1,1,0,0,1,.3,0v1a1.94,1.94,0,0,0-.36,0,1.47,1.47,0,0,0-1.41,1.35,2.49,2.49,0,0,0-.05.5v3.09h-1Z"/><line class="cls-6" x1="550" y1="73.46" x2="550" y2="279.54"/><polygon class="cls-7" points="546.67 78.45 550 74.51 553.33 78.45 550 67 546.67 78.45"/><polygon class="cls-8" points="547.64 76.83 550 68.26 550 73.91 547.64 76.83"/><polygon class="cls-7" points="553.33 274.55 550 278.49 546.67 274.55 550 286 553.33 274.55"/><polygon class="cls-8" points="552.36 276.17 550 284.74 550 279.09 552.36 276.17"/><line class="cls-9" x1="395.96" y1="124.5" x2="706.54" y2="124.5"/><polygon class="cls-10" points="400.95 121.17 397.01 124.5 400.95 127.83 389.5 124.5 400.95 121.17"/><polygon class="cls-8" points="399.33 122.14 390.76 124.5 396.41 124.5 399.33 122.14"/><polygon class="cls-10" points="701.54 121.17 705.49 124.5 701.54 127.83 713 124.5 701.54 121.17"/><polygon class="cls-8" points="703.17 122.14 711.74 124.5 706.09 124.5 703.17 122.14"/></svg>