<svg id="Layer_1" data-name="Layer 1" xmlns="http://www.w3.org/2000/svg" viewBox="0 0 800 352"><defs><style>.cls-1{fill:#ffb024;}.cls-2{fill:#0c93ef;}.cls-3{opacity:0.8;}.cls-4{opacity:0.7;}.cls-5,.cls-8{fill:none;stroke-miterlimit:10;}.cls-5{stroke:#e213dd;}.cls-6{fill:#e213dd;}.cls-7{fill:#fff;}.cls-8{stroke:#e210e8;}.cls-9{fill:#e210e8;}</style></defs><title>post1</title><path class="cls-1" d="M645,299.37H130c-4.62,0-41,27.81-41,21.77V70.93c0-6,3.74-10.93,8.36-10.93H681.64c4.62,0,8.36,4.89,8.36,10.93V321.14C690,327.18,649.62,299.37,645,299.37Z"/><rect class="cls-2" x="108" y="82" width="116" height="86"/><g class="cls-3"><rect class="cls-2" x="236" y="100" width="116" height="50"/></g><g class="cls-4"><rect class="cls-2" x="364" y="74" width="116" height="102"/></g><path d="M735.88,114.83c-.06-1.13-.14-2.49-.12-3.5h0c-.28,1-.61,2-1,3.08l-1.43,3.92h-.79l-1.31-3.85c-.38-1.14-.7-2.19-.93-3.15h0c0,1-.08,2.37-.15,3.58l-.22,3.47h-1l.56-8.09h1.33l1.38,3.91c.34,1,.61,1.88.82,2.72h0c.21-.81.5-1.7.86-2.72l1.43-3.91h1.34l.5,8.09h-1Z"/><path d="M742,118.38l-.08-.74h0a2.15,2.15,0,0,1-1.77.87,1.66,1.66,0,0,1-1.78-1.67c0-1.4,1.25-2.17,3.49-2.16v-.12a1.19,1.19,0,0,0-1.32-1.34,2.93,2.93,0,0,0-1.51.43l-.24-.7a3.63,3.63,0,0,1,1.91-.51c1.77,0,2.21,1.21,2.21,2.37V117a8.52,8.52,0,0,0,.09,1.4Zm-.15-3c-1.16,0-2.46.18-2.46,1.31a.93.93,0,0,0,1,1,1.45,1.45,0,0,0,1.41-1,1.35,1.35,0,0,0,.06-.34Z"/><path d="M745.71,110.94a.66.66,0,0,1-1.31,0,.65.65,0,0,1,.66-.66A.63.63,0,0,1,745.71,110.94Zm-1.18,7.44v-5.81h1.06v5.81Z"/><path d="M747.34,114.14c0-.6,0-1.09-.05-1.57h.94l.06,1h0a2.14,2.14,0,0,1,1.92-1.09c.8,0,2,.48,2,2.47v3.47h-1V115c0-.94-.35-1.72-1.35-1.72a1.51,1.51,0,0,0-1.41,1.08,1.53,1.53,0,0,0-.08.49v3.5h-1Z"/><path d="M730.37,130.23l-.84,2.55h-1.08l2.75-8.09h1.26l2.76,8.09H734.1l-.86-2.55Zm2.65-.81-.79-2.33c-.18-.53-.3-1-.42-1.47h0c-.12.47-.26,1-.41,1.46l-.79,2.34Z"/><path d="M736.86,127l.83,1.25c.22.32.4.62.59.95h0c.2-.35.39-.65.58-1l.82-1.24h1.13l-2,2.81,2,3h-1.2l-.86-1.31c-.22-.34-.42-.66-.62-1h0c-.2.35-.4.66-.62,1l-.83,1.31h-1.17l2.07-3-2-2.84Z"/><path d="M743.1,125.34a.62.62,0,0,1-.67.65.63.63,0,0,1-.63-.65.64.64,0,0,1,.66-.66A.62.62,0,0,1,743.1,125.34Zm-1.17,7.44V127H743v5.81Z"/><path d="M744.59,131.7a2.82,2.82,0,0,0,1.39.42c.77,0,1.13-.39,1.13-.87s-.3-.78-1.08-1.07c-1-.37-1.53-.94-1.53-1.64a1.79,1.79,0,0,1,2-1.7,2.94,2.94,0,0,1,1.43.36l-.27.76a2.32,2.32,0,0,0-1.19-.33c-.62,0-1,.36-1,.79s.35.7,1.11,1c1,.39,1.52.89,1.52,1.76,0,1-.79,1.73-2.17,1.73a3.3,3.3,0,0,1-1.63-.39Z"/><path d="M545.23,318.52a5.2,5.2,0,0,1-2.13.38,3.78,3.78,0,0,1-4-4.09,4,4,0,0,1,4.22-4.24,4.22,4.22,0,0,1,1.92.36l-.25.85a3.8,3.8,0,0,0-1.63-.34,3,3,0,0,0-3.15,3.34,2.94,2.94,0,0,0,3.1,3.25,4.1,4.1,0,0,0,1.71-.34Z"/><path d="M546.47,314.79c0-.68,0-1.27-.05-1.81h.93l0,1.14h0a1.74,1.74,0,0,1,1.61-1.27,1.39,1.39,0,0,1,.3,0v1a1.32,1.32,0,0,0-.36,0,1.49,1.49,0,0,0-1.42,1.36,3.37,3.37,0,0,0,0,.49v3.09h-1Z"/><path d="M555.53,315.83a2.84,2.84,0,0,1-2.89,3.09,2.77,2.77,0,0,1-2.79-3,2.83,2.83,0,0,1,2.88-3.08A2.75,2.75,0,0,1,555.53,315.83Zm-4.61.06c0,1.27.73,2.23,1.76,2.23s1.77-.94,1.77-2.25c0-1-.49-2.23-1.74-2.23S550.92,314.79,550.92,315.89Z"/><path d="M556.72,317.7a2.69,2.69,0,0,0,1.39.42c.77,0,1.13-.38,1.13-.86s-.3-.78-1.08-1.07c-1-.37-1.54-.94-1.54-1.64a1.79,1.79,0,0,1,2-1.7,2.81,2.81,0,0,1,1.43.36l-.26.76a2.32,2.32,0,0,0-1.19-.33c-.62,0-1,.36-1,.79s.35.69,1.1,1c1,.39,1.53.89,1.53,1.75,0,1-.8,1.74-2.18,1.74a3.33,3.33,0,0,1-1.63-.39Z"/><path d="M561.47,317.7a2.69,2.69,0,0,0,1.39.42c.77,0,1.13-.38,1.13-.86s-.3-.78-1.08-1.07c-1-.37-1.54-.94-1.54-1.64a1.79,1.79,0,0,1,2-1.7,2.79,2.79,0,0,1,1.42.36l-.26.76a2.32,2.32,0,0,0-1.19-.33c-.62,0-1,.36-1,.79s.35.69,1.1,1c1,.39,1.53.89,1.53,1.75,0,1-.79,1.74-2.17,1.74a3.27,3.27,0,0,1-1.63-.39Z"/><path d="M540.89,330.64l-.84,2.54H539l2.75-8.08H543l2.76,8.08h-1.12l-.86-2.54Zm2.65-.81-.79-2.33c-.18-.53-.3-1-.42-1.48h0c-.12.48-.25,1-.4,1.47l-.79,2.34Z"/><path d="M547.38,327.38l.83,1.25c.22.32.4.62.59.94h0l.58-1,.81-1.23h1.14l-2,2.81,2,3h-1.2l-.85-1.3c-.23-.34-.42-.66-.62-1h0c-.2.35-.4.66-.62,1l-.84,1.3h-1.16l2.06-3-2-2.84Z"/><path d="M553.62,325.75a.62.62,0,0,1-.67.65.63.63,0,0,1-.64-.65.65.65,0,0,1,.66-.66A.63.63,0,0,1,553.62,325.75Zm-1.17,7.43v-5.8h1v5.8Z"/><path d="M555.11,332.1a2.69,2.69,0,0,0,1.39.42c.77,0,1.13-.38,1.13-.86s-.3-.78-1.08-1.07c-1-.37-1.54-.94-1.54-1.64a1.79,1.79,0,0,1,2-1.7,2.87,2.87,0,0,1,1.42.36l-.26.76A2.32,2.32,0,0,0,557,328c-.62,0-1,.36-1,.79s.35.7,1.1,1c1,.39,1.53.89,1.53,1.75,0,1-.79,1.74-2.17,1.74a3.27,3.27,0,0,1-1.63-.39Z"/><line class="cls-5" x1="550" y1="73.46" x2="550" y2="279.54"/><polygon class="cls-6" points="546.67 78.45 550 74.51 553.33 78.45 550 67 546.67 78.45"/><polygon class="cls-7" points="547.64 76.83 550 68.26 550 73.91 547.64 76.83"/><polygon class="cls-6" points="553.33 274.55 550 278.49 546.67 274.55 550 286 553.33 274.55"/><polygon class="cls-7" points="552.36 276.17 550 284.74 550 279.09 552.36 276.17"/><line class="cls-8" x1="395.96" y1="124.5" x2="706.54" y2="124.5"/><polygon class="cls-9" points="400.95 127.83 397.01 124.5 400.95 121.17 389.5 124.5 400.95 127.83"/><polygon class="cls-7" points="399.33 126.86 390.76 124.5 396.41 124.5 399.33 126.86"/><polygon class="cls-9" points="701.54 121.17 705.49 124.5 701.54 127.83 713 124.5 701.54 121.17"/><polygon class="cls-7" points="703.17 122.14 711.74 124.5 706.09 124.5 703.17 122.14"/></svg>