<svg id="Layer_1" data-name="Layer 1" xmlns="http://www.w3.org/2000/svg" viewBox="0 0 800 352"><defs><style>.cls-1{fill:#ffb024;}.cls-2{fill:#0c93ef;}.cls-3{opacity:0.8;}.cls-4{opacity:0.7;}.cls-5{opacity:0.6;}.cls-6,.cls-9{fill:none;stroke-miterlimit:10;}.cls-6{stroke:#e213dd;}.cls-7{fill:#e213dd;}.cls-8{fill:#fff;}.cls-9{stroke:#e210e8;}.cls-10{fill:#e210e8;}</style></defs><title>flexbox-en</title><path class="cls-1" d="M645,243H130c-4.62,0-41,21.26-41,16.64V68.36A8.36,8.36,0,0,1,97.36,60H681.64A8.36,8.36,0,0,1,690,68.36V259.64C690,264.26,649.62,243,645,243Z"/><rect class="cls-2" x="108" y="82" width="116" height="86"/><g class="cls-3"><rect class="cls-2" x="236" y="82" width="116" height="86"/></g><g class="cls-4"><rect class="cls-2" x="364" y="82" width="116" height="86"/></g><g class="cls-5"><rect class="cls-2" x="492" y="82" width="116" height="86"/></g><path d="M735.88,114.83c-.06-1.13-.14-2.49-.12-3.5h0c-.28,1-.61,2-1,3.08l-1.43,3.92h-.79l-1.31-3.85c-.38-1.14-.7-2.19-.93-3.15h0c0,1-.08,2.37-.15,3.58l-.22,3.47h-1l.56-8.09h1.33l1.38,3.91c.34,1,.61,1.88.82,2.72h0c.21-.81.5-1.7.86-2.72l1.43-3.91h1.34l.5,8.09h-1Z"/><path d="M742,118.38l-.08-.74h0a2.15,2.15,0,0,1-1.77.87,1.66,1.66,0,0,1-1.78-1.67c0-1.4,1.25-2.17,3.49-2.16v-.12a1.19,1.19,0,0,0-1.32-1.34,2.93,2.93,0,0,0-1.51.43l-.24-.7a3.63,3.63,0,0,1,1.91-.51c1.77,0,2.21,1.21,2.21,2.37V117a8.52,8.52,0,0,0,.09,1.4Zm-.15-3c-1.16,0-2.46.18-2.46,1.31a.93.93,0,0,0,1,1,1.45,1.45,0,0,0,1.41-1,1.35,1.35,0,0,0,.06-.34Z"/><path d="M745.71,110.94a.66.66,0,0,1-1.31,0,.65.65,0,0,1,.66-.66A.63.63,0,0,1,745.71,110.94Zm-1.18,7.44v-5.81h1.06v5.81Z"/><path d="M747.34,114.14c0-.6,0-1.09-.05-1.57h.94l.06,1h0a2.14,2.14,0,0,1,1.92-1.09c.8,0,2,.48,2,2.47v3.47h-1V115c0-.94-.35-1.72-1.35-1.72a1.51,1.51,0,0,0-1.41,1.08,1.53,1.53,0,0,0-.08.49v3.5h-1Z"/><path d="M730.37,130.23l-.84,2.55h-1.08l2.75-8.09h1.26l2.76,8.09H734.1l-.86-2.55Zm2.65-.81-.79-2.33c-.18-.53-.3-1-.42-1.47h0c-.12.47-.26,1-.41,1.46l-.79,2.34Z"/><path d="M736.86,127l.83,1.25c.22.32.4.62.59.95h0c.2-.35.39-.65.58-1l.82-1.24h1.13l-2,2.81,2,3h-1.2l-.86-1.31c-.22-.34-.42-.66-.62-1h0c-.2.35-.4.66-.62,1l-.83,1.31h-1.17l2.07-3-2-2.84Z"/><path d="M743.1,125.34a.62.62,0,0,1-.67.65.63.63,0,0,1-.63-.65.64.64,0,0,1,.66-.66A.62.62,0,0,1,743.1,125.34Zm-1.17,7.44V127H743v5.81Z"/><path d="M744.59,131.7a2.82,2.82,0,0,0,1.39.42c.77,0,1.13-.39,1.13-.87s-.3-.78-1.08-1.07c-1-.37-1.53-.94-1.53-1.64a1.79,1.79,0,0,1,2-1.7,2.94,2.94,0,0,1,1.43.36l-.27.76a2.32,2.32,0,0,0-1.19-.33c-.62,0-1,.36-1,.79s.35.7,1.11,1c1,.39,1.52.89,1.52,1.76,0,1-.79,1.73-2.17,1.73a3.3,3.3,0,0,1-1.63-.39Z"/><path d="M544.23,296.52a5.2,5.2,0,0,1-2.13.38,3.78,3.78,0,0,1-4-4.09,4,4,0,0,1,4.22-4.24,4.22,4.22,0,0,1,1.92.36l-.25.85a3.8,3.8,0,0,0-1.63-.34,3,3,0,0,0-3.15,3.34,2.94,2.94,0,0,0,3.1,3.25,4.1,4.1,0,0,0,1.71-.34Z"/><path d="M545.47,292.79c0-.68,0-1.27-.05-1.81h.93l0,1.14h0a1.74,1.74,0,0,1,1.61-1.27,1.39,1.39,0,0,1,.3,0v1a1.32,1.32,0,0,0-.36,0,1.49,1.49,0,0,0-1.42,1.36,3.37,3.37,0,0,0,0,.49v3.09h-1Z"/><path d="M554.53,293.83a2.84,2.84,0,0,1-2.89,3.09,2.77,2.77,0,0,1-2.79-3,2.83,2.83,0,0,1,2.88-3.08A2.75,2.75,0,0,1,554.53,293.83Zm-4.61.06c0,1.27.73,2.23,1.76,2.23s1.77-.94,1.77-2.25c0-1-.49-2.23-1.74-2.23S549.92,292.79,549.92,293.89Z"/><path d="M555.72,295.7a2.69,2.69,0,0,0,1.39.42c.77,0,1.13-.38,1.13-.86s-.3-.78-1.08-1.07c-1-.37-1.54-.94-1.54-1.64a1.79,1.79,0,0,1,2-1.7,2.81,2.81,0,0,1,1.43.36l-.26.76a2.32,2.32,0,0,0-1.19-.33c-.62,0-1,.36-1,.79s.35.69,1.1,1c1,.39,1.53.89,1.53,1.75,0,1-.8,1.74-2.18,1.74a3.33,3.33,0,0,1-1.63-.39Z"/><path d="M560.47,295.7a2.69,2.69,0,0,0,1.39.42c.77,0,1.13-.38,1.13-.86s-.3-.78-1.08-1.07c-1-.37-1.54-.94-1.54-1.64a1.79,1.79,0,0,1,2-1.7,2.79,2.79,0,0,1,1.42.36l-.26.76a2.32,2.32,0,0,0-1.19-.33c-.62,0-1,.36-1,.79s.35.69,1.1,1c1,.39,1.53.89,1.53,1.75,0,1-.79,1.74-2.17,1.74a3.27,3.27,0,0,1-1.63-.39Z"/><path d="M539.89,308.64l-.84,2.54H538l2.75-8.08H542l2.76,8.08h-1.12l-.86-2.54Zm2.65-.81-.79-2.33c-.18-.53-.3-1-.42-1.48h0c-.12.48-.25,1-.4,1.47l-.79,2.34Z"/><path d="M546.38,305.38l.83,1.25c.22.32.4.62.59.94h0l.58-1,.81-1.23h1.14l-2,2.81,2,3h-1.2l-.85-1.3c-.23-.34-.42-.66-.62-1h0c-.2.35-.4.66-.62,1l-.84,1.3h-1.16l2.06-3-2-2.84Z"/><path d="M552.62,303.75a.62.62,0,0,1-.67.65.63.63,0,0,1-.64-.65.65.65,0,0,1,.66-.66A.63.63,0,0,1,552.62,303.75Zm-1.17,7.43v-5.8h1v5.8Z"/><path d="M554.11,310.1a2.69,2.69,0,0,0,1.39.42c.77,0,1.13-.38,1.13-.86s-.3-.78-1.08-1.07c-1-.37-1.54-.94-1.54-1.64a1.79,1.79,0,0,1,2-1.7,2.87,2.87,0,0,1,1.42.36l-.26.76A2.32,2.32,0,0,0,556,306c-.62,0-1,.36-1,.79s.35.7,1.1,1c1,.39,1.53.89,1.53,1.75,0,1-.79,1.74-2.17,1.74a3.27,3.27,0,0,1-1.63-.39Z"/><path d="M95.19,50.62a5.2,5.2,0,0,1-2.13.38,3.78,3.78,0,0,1-4-4.09,4,4,0,0,1,4.23-4.25A4.35,4.35,0,0,1,95.2,43l-.25.86a3.66,3.66,0,0,0-1.63-.34,3,3,0,0,0-3.15,3.33,2.94,2.94,0,0,0,3.1,3.25A4.27,4.27,0,0,0,95,49.79Z"/><path d="M101.59,47.93A2.83,2.83,0,0,1,98.7,51a2.76,2.76,0,0,1-2.78-3,2.83,2.83,0,0,1,2.87-3.09A2.75,2.75,0,0,1,101.59,47.93ZM97,48c0,1.27.73,2.23,1.77,2.23s1.76-.95,1.76-2.26c0-1-.49-2.23-1.74-2.23S97,46.89,97,48Z"/><path d="M102.92,46.65c0-.6,0-1.1,0-1.58h.93l.06,1h0a2.11,2.11,0,0,1,1.91-1.09c.81,0,2,.48,2,2.47v3.47h-1V47.53c0-.93-.35-1.71-1.34-1.71a1.5,1.5,0,0,0-1.42,1.08,1.45,1.45,0,0,0-.07.49v3.49h-1.06Z"/><path d="M110.81,43.41v1.66h1.51v.81h-1.51V49c0,.72.2,1.13.79,1.13a2.13,2.13,0,0,0,.61-.08l.05.8a2.73,2.73,0,0,1-.94.14,1.49,1.49,0,0,1-1.14-.44,2.18,2.18,0,0,1-.41-1.52V45.88h-.89v-.81h.89V43.68Z"/><path d="M116.72,50.88l-.08-.73h0a2.17,2.17,0,0,1-1.77.86,1.66,1.66,0,0,1-1.78-1.67c0-1.4,1.25-2.17,3.49-2.15v-.12a1.2,1.2,0,0,0-1.32-1.35,2.93,2.93,0,0,0-1.51.43l-.24-.69a3.64,3.64,0,0,1,1.91-.52c1.77,0,2.2,1.21,2.2,2.38v2.17a8.4,8.4,0,0,0,.1,1.39Zm-.15-3c-1.16,0-2.46.18-2.46,1.3a.93.93,0,0,0,1,1,1.45,1.45,0,0,0,1.41-1,1.35,1.35,0,0,0,.06-.34Z"/><path d="M120.47,43.44a.63.63,0,0,1-.68.65.63.63,0,0,1-.63-.65.65.65,0,0,1,.66-.66A.63.63,0,0,1,120.47,43.44Zm-1.18,7.44V45.07h1.06v5.81Z"/><path d="M122.1,46.65c0-.6,0-1.1,0-1.58H123l.06,1h0A2.14,2.14,0,0,1,125,44.94c.8,0,2.05.48,2.05,2.47v3.47H126V47.53c0-.93-.34-1.71-1.34-1.71a1.5,1.5,0,0,0-1.41,1.08,1.44,1.44,0,0,0-.08.49v3.49H122.1Z"/><path d="M129.35,48.17a1.85,1.85,0,0,0,2,2,3.75,3.75,0,0,0,1.6-.3l.18.76a4.63,4.63,0,0,1-1.93.36,2.7,2.7,0,0,1-2.85-2.93c0-1.75,1-3.13,2.72-3.13a2.46,2.46,0,0,1,2.4,2.74,2.81,2.81,0,0,1,0,.49Zm3.09-.76A1.5,1.5,0,0,0,131,45.7a1.74,1.74,0,0,0-1.62,1.71Z"/><path d="M134.77,46.89c0-.69,0-1.28-.05-1.82h.93l0,1.14h0a1.74,1.74,0,0,1,1.61-1.27,1.36,1.36,0,0,1,.3,0v1a1.94,1.94,0,0,0-.36,0,1.48,1.48,0,0,0-1.42,1.35,3.68,3.68,0,0,0-.05.5v3.09h-1Z"/><path d="M141.48,50.88l.31-2.35h-1v-.71h1.09l.23-1.74h-1v-.7h1.14l.32-2.3h.69l-.3,2.3h1.25l.31-2.3h.71l-.3,2.3h1v.7H144.8l-.22,1.74h1v.71h-1.14l-.31,2.35h-.72l.31-2.35h-1.25l-.31,2.35Zm2.39-3.06.22-1.74h-1.24l-.23,1.74Z"/><path d="M147.62,45.07l.77,3c.17.64.32,1.24.43,1.84h0c.13-.59.32-1.21.51-1.83l.95-3h.89l.9,2.91c.21.69.38,1.3.51,1.89h0A18.49,18.49,0,0,1,153.1,48l.83-2.92h1l-1.87,5.81h-1l-.88-2.77a16.75,16.75,0,0,1-.52-1.91h0a19,19,0,0,1-.53,1.92l-.94,2.76h-1l-1.75-5.81Z"/><path d="M156,46.89c0-.69,0-1.28,0-1.82h.92l0,1.14h0a1.75,1.75,0,0,1,1.61-1.27,1.28,1.28,0,0,1,.3,0v1a1.86,1.86,0,0,0-.36,0,1.47,1.47,0,0,0-1.41,1.35,2.57,2.57,0,0,0,0,.5v3.09H156Z"/><path d="M163.11,50.88l-.08-.73h0a2.16,2.16,0,0,1-1.77.86,1.66,1.66,0,0,1-1.78-1.67c0-1.4,1.25-2.17,3.49-2.15v-.12a1.2,1.2,0,0,0-1.32-1.35,2.93,2.93,0,0,0-1.51.43l-.24-.69a3.64,3.64,0,0,1,1.91-.52c1.77,0,2.21,1.21,2.21,2.38v2.17a8.47,8.47,0,0,0,.09,1.39Zm-.15-3c-1.15,0-2.46.18-2.46,1.3a.93.93,0,0,0,1,1,1.45,1.45,0,0,0,1.41-1,1.35,1.35,0,0,0,.06-.34Z"/><path d="M165.68,47c0-.74,0-1.34-.05-1.9h1l0,1h0a2.3,2.3,0,0,1,2.07-1.13c1.4,0,2.46,1.19,2.46,3,0,2.09-1.28,3.12-2.64,3.12a2,2,0,0,1-1.79-.91h0v3.15h-1Zm1,1.55a2.86,2.86,0,0,0,0,.43,1.64,1.64,0,0,0,1.59,1.23c1.11,0,1.76-.91,1.76-2.24,0-1.16-.61-2.16-1.73-2.16a1.68,1.68,0,0,0-1.59,1.31,1.55,1.55,0,0,0-.07.43Z"/><path d="M172.51,47c0-.74,0-1.34,0-1.9h.95l.05,1h0a2.28,2.28,0,0,1,2.06-1.13c1.41,0,2.46,1.19,2.46,3C178,50,176.73,51,175.36,51a2,2,0,0,1-1.78-.91h0v3.15h-1Zm1,1.55a2.82,2.82,0,0,0,0,.43,1.63,1.63,0,0,0,1.58,1.23c1.12,0,1.77-.91,1.77-2.24,0-1.16-.61-2.16-1.73-2.16a1.68,1.68,0,0,0-1.59,1.31,1.56,1.56,0,0,0-.08.43Z"/><path d="M179.93,48.17a1.85,1.85,0,0,0,2,2,3.75,3.75,0,0,0,1.6-.3l.18.76a4.63,4.63,0,0,1-1.93.36,2.7,2.7,0,0,1-2.85-2.93c0-1.75,1-3.13,2.72-3.13a2.46,2.46,0,0,1,2.4,2.74,2.81,2.81,0,0,1,0,.49Zm3.09-.76a1.5,1.5,0,0,0-1.46-1.71,1.74,1.74,0,0,0-1.62,1.71Z"/><path d="M185.35,46.89c0-.69,0-1.28,0-1.82h.93l0,1.14h.05a1.74,1.74,0,0,1,1.61-1.27,1.36,1.36,0,0,1,.3,0v1a1.94,1.94,0,0,0-.36,0,1.48,1.48,0,0,0-1.42,1.35,3.68,3.68,0,0,0-.05.5v3.09h-1Z"/><line class="cls-6" x1="550" y1="73.46" x2="550" y2="279.54"/><polygon class="cls-7" points="546.67 78.45 550 74.51 553.33 78.45 550 67 546.67 78.45"/><polygon class="cls-8" points="547.64 76.83 550 68.26 550 73.91 547.64 76.83"/><polygon class="cls-7" points="553.33 274.55 550 278.49 546.67 274.55 550 286 553.33 274.55"/><polygon class="cls-8" points="552.36 276.17 550 284.74 550 279.09 552.36 276.17"/><line class="cls-9" x1="395.96" y1="124.5" x2="706.54" y2="124.5"/><polygon class="cls-10" points="400.95 127.83 397.01 124.5 400.95 121.17 389.5 124.5 400.95 127.83"/><polygon class="cls-8" points="399.33 126.86 390.76 124.5 396.41 124.5 399.33 126.86"/><polygon class="cls-10" points="701.54 121.17 705.49 124.5 701.54 127.83 713 124.5 701.54 121.17"/><polygon class="cls-8" points="703.17 122.14 711.74 124.5 706.09 124.5 703.17 122.14"/></svg>